<svg width="564" height="432" viewBox="0 0 564 432" fill="none" xmlns="http://www.w3.org/2000/svg">
<path d="M217.788 388.439L189.896 399.526L190.366 399.901L222.354 412.128L217.788 388.439Z" fill="white"/>
<path d="M254.515 371.104L221.077 384.318L226.454 366.25L254.515 371.104Z" fill="white"/>
<path d="M255.83 368.492L209.203 360.386L231.619 348.207L255.83 368.492Z" fill="white"/>
<path d="M223.493 365.622L209.298 363.16L218.562 382.889L223.493 365.622Z" fill="white"/>
<path d="M187.922 397.179L215.602 386.117L190.297 368.028L187.922 397.179Z" fill="white"/>
<path d="M216.213 383.905L183.294 316.195L189.652 364.637L216.213 383.905Z" fill="white"/>
<path d="M186.408 361.47L132.366 305.043L179.438 309.456L186.408 361.47Z" fill="white"/>
<path d="M150.594 276.415L107.607 256.759L130.109 302.086L177.91 306.309L150.594 276.415Z" fill="white"/>
<path d="M147.938 272.753L129.612 201.462L106.214 231.747L107.159 253.703L147.938 272.753Z" fill="white"/>
<path d="M179.225 304.66L175.892 231.456L151.346 275.473L179.225 304.66Z" fill="white"/>
<path d="M150.476 272.466L174.364 228.309L132.863 199.983L150.476 272.466Z" fill="white"/>
<path d="M127.261 199.586L100.214 203.829L105.766 227.727L127.261 199.586Z" fill="white"/>
<path d="M96.359 201.91L70.503 181.276L73.4742 219.497L96.359 201.91Z" fill="white"/>
<path d="M128.66 196.629L109.631 178.77L100.401 200.702L128.66 196.629Z" fill="white"/>
<path d="M100.789 157.066L72.523 177.298L95.8023 141.136L100.789 157.066Z" fill="white"/>
<path d="M97.5568 199.203L73.2286 179.789L102.152 159.696L107.397 176.024L97.5568 199.203Z" fill="white"/>
<path d="M108.547 170.967L97.2349 137.654L119.863 125.45L108.547 170.967Z" fill="white"/>
<path d="M131.02 194.876L110.429 176.324L122.823 125.115L150.444 152.939L131.02 194.876Z" fill="white"/>
<path d="M151.925 155.663L174.292 224.783L132.995 197.223L151.925 155.663Z" fill="white"/>
<path d="M204.798 143.888L185.5 129.259L200.105 171.946L209.437 180.743L204.798 143.888Z" fill="white"/>
<path d="M177.089 224.894L153.899 153.19L182.092 126.539L198.696 173.713L177.089 224.894Z" fill="white"/>
<path d="M228.683 177.598L211.319 187.063L212.006 206.693L228.683 177.598Z" fill="white"/>
<path d="M228.753 174.377L207.619 146.139L212.493 183.181L228.753 174.377Z" fill="white"/>
<path d="M207.853 143.435L185.993 125.99L216.941 118.307L228.752 171.485L207.853 143.435Z" fill="white"/>
<path d="M214.802 115.443L181.636 91.6744L184.535 123.478L214.802 115.443Z" fill="white"/>
<path d="M150.325 148.989L142.247 81.2497L123.151 121.329L150.325 148.989Z" fill="white"/>
<path d="M178.463 91.07L144.784 78.0704L153.733 149.781L181.879 122.708L178.463 91.07Z" fill="white"/>
<path d="M178.862 87.9187L147.674 76.1363L186.824 70.9506L178.862 87.9187Z" fill="white"/>
<path d="M217.198 114.85L183.892 90.7762L241.207 82.3541L217.198 114.85Z" fill="white"/>
<path d="M190.725 71.3654L182.998 87.5572L237.212 80.1292L190.725 71.3654Z" fill="white"/>
<path d="M193.075 68.4216L194.671 68.7317L230.413 52.7306L242.875 78.0952L194.671 68.7317L193.897 69.0781L193.075 68.4216Z" fill="white"/>
<path d="M187.975 67.8213L150.305 72.8392L198.074 46.0055L187.975 67.8213Z" fill="white"/>
<path d="M201.858 45.3626L192.651 65.5778L193.121 65.9529L226.511 51.3519L201.858 45.3626Z" fill="white"/>
<path d="M262.206 43.9871L235.465 50.0161L251.912 39.0485L262.206 43.9871Z" fill="white"/>
<path d="M245.53 76.9375L234.102 53.1694L263.429 46.312L245.53 76.9375Z" fill="white"/>
<path d="M224.996 414.742L215.727 431.654L188.067 400.584L224.996 414.742Z" fill="white"/>
<path d="M346.025 43.5567L373.917 32.4705L373.447 32.0954L341.46 19.868L346.025 43.5567Z" fill="white"/>
<path d="M309.299 60.8921L342.736 47.6781L337.359 65.7456L309.299 60.8921Z" fill="white"/>
<path d="M307.983 63.5046L354.61 71.6097L332.194 83.7892L307.983 63.5046Z" fill="white"/>
<path d="M340.321 66.374L354.515 68.8357L345.251 49.1068L340.321 66.374Z" fill="white"/>
<path d="M375.892 34.8173L348.211 45.8795L373.517 63.9682L375.892 34.8173Z" fill="white"/>
<path d="M347.601 48.0908L380.519 115.801L374.161 67.3594L347.601 48.0908Z" fill="white"/>
<path d="M377.405 70.5264L431.448 126.953L384.375 122.54L377.405 70.5264Z" fill="white"/>
<path d="M413.219 155.581L456.207 175.237L433.705 129.911L385.904 125.687L413.219 155.581Z" fill="white"/>
<path d="M415.876 159.243L434.202 230.534L457.6 200.249L456.654 178.293L415.876 159.243Z" fill="white"/>
<path d="M384.588 127.336L387.921 200.54L412.467 156.523L384.588 127.336Z" fill="white"/>
<path d="M413.338 159.53L389.45 203.687L430.951 232.013L413.338 159.53Z" fill="white"/>
<path d="M436.552 232.41L463.6 228.167L458.047 204.269L436.552 232.41Z" fill="white"/>
<path d="M467.455 230.087L493.31 250.72L490.339 212.499L467.455 230.087Z" fill="white"/>
<path d="M435.154 235.367L454.183 253.226L463.413 231.294L435.154 235.367Z" fill="white"/>
<path d="M463.025 274.93L491.291 254.698L468.011 290.86L463.025 274.93Z" fill="white"/>
<path d="M466.257 232.793L490.585 252.207L461.661 272.3L456.416 255.972L466.257 232.793Z" fill="white"/>
<path d="M455.266 261.029L466.579 294.342L443.951 306.546L455.266 261.029Z" fill="white"/>
<path d="M432.793 237.12L453.385 255.673L440.99 306.881L413.37 279.057L432.793 237.12Z" fill="white"/>
<path d="M411.888 276.333L389.521 207.213L430.819 234.773L411.888 276.333Z" fill="white"/>
<path d="M359.015 288.108L378.313 302.737L363.708 260.05L354.376 251.253L359.015 288.108Z" fill="white"/>
<path d="M386.724 207.102L409.915 278.806L381.722 305.457L365.118 258.283L386.724 207.102Z" fill="white"/>
<path d="M335.13 254.398L352.494 244.933L351.808 225.303L335.13 254.398Z" fill="white"/>
<path d="M335.06 257.619L356.195 285.857L351.32 248.815L335.06 257.619Z" fill="white"/>
<path d="M355.961 288.561L377.821 306.006L346.873 313.69L335.061 260.511L355.961 288.561Z" fill="white"/>
<path d="M349.012 316.553L382.177 340.322L379.278 308.518L349.012 316.553Z" fill="white"/>
<path d="M413.488 283.007L421.567 350.746L440.662 310.667L413.488 283.007Z" fill="white"/>
<path d="M385.35 340.926L419.03 353.926L410.08 282.215L381.934 309.288L385.35 340.926Z" fill="white"/>
<path d="M384.951 344.077L416.14 355.86L376.989 361.045L384.951 344.077Z" fill="white"/>
<path d="M346.615 317.146L379.922 341.22L322.606 349.642L346.615 317.146Z" fill="white"/>
<path d="M373.088 360.631L380.815 344.439L326.602 351.867L373.088 360.631Z" fill="white"/>
<path d="M370.739 363.574L369.142 363.264L333.401 379.265L320.939 353.901L369.142 363.264L369.916 362.918L370.739 363.574Z" fill="white"/>
<path d="M375.839 364.175L413.508 359.157L365.739 385.991L375.839 364.175Z" fill="white"/>
<path d="M361.956 386.634L371.163 366.418L370.692 366.043L337.302 380.644L361.956 386.634Z" fill="white"/>
<path d="M301.607 388.009L328.349 381.98L311.902 392.948L301.607 388.009Z" fill="white"/>
<path d="M318.284 355.059L329.711 378.827L300.384 385.684L318.284 355.059Z" fill="white"/>
<path d="M338.817 17.2538L348.086 0.342118L375.747 31.412L338.817 17.2538Z" fill="white"/>
<path d="M217.788 388.439L189.896 399.526L190.366 399.901L222.354 412.128L217.788 388.439Z" fill="white"/>
<path d="M254.515 371.104L221.077 384.318L226.454 366.25L254.515 371.104Z" fill="white"/>
<path d="M255.83 368.492L209.203 360.386L231.619 348.207L255.83 368.492Z" fill="white"/>
<path d="M223.493 365.622L209.298 363.16L218.562 382.889L223.493 365.622Z" fill="white"/>
<path d="M187.922 397.179L215.602 386.117L190.297 368.028L187.922 397.179Z" fill="white"/>
<path d="M216.213 383.905L183.294 316.195L189.652 364.637L216.213 383.905Z" fill="white"/>
<path d="M186.408 361.47L132.366 305.043L179.438 309.456L186.408 361.47Z" fill="white"/>
<path d="M150.594 276.415L107.607 256.759L130.109 302.086L177.91 306.309L150.594 276.415Z" fill="white"/>
<path d="M147.938 272.753L129.612 201.462L106.214 231.747L107.159 253.703L147.938 272.753Z" fill="white"/>
<path d="M179.225 304.66L175.892 231.456L151.346 275.473L179.225 304.66Z" fill="white"/>
<path d="M150.476 272.466L174.364 228.309L132.863 199.983L150.476 272.466Z" fill="white"/>
<path d="M127.261 199.586L100.214 203.829L105.766 227.727L127.261 199.586Z" fill="white"/>
<path d="M96.359 201.91L70.503 181.276L73.4742 219.497L96.359 201.91Z" fill="white"/>
<path d="M128.66 196.629L109.631 178.77L100.401 200.702L128.66 196.629Z" fill="white"/>
<path d="M100.789 157.066L72.523 177.298L95.8023 141.136L100.789 157.066Z" fill="white"/>
<path d="M97.5568 199.203L73.2286 179.789L102.152 159.696L107.397 176.024L97.5568 199.203Z" fill="white"/>
<path d="M108.547 170.967L97.2349 137.654L119.863 125.45L108.547 170.967Z" fill="white"/>
<path d="M131.02 194.876L110.429 176.324L122.823 125.115L150.444 152.939L131.02 194.876Z" fill="white"/>
<path d="M151.925 155.663L174.292 224.783L132.995 197.223L151.925 155.663Z" fill="white"/>
<path d="M204.798 143.888L185.5 129.259L200.105 171.946L209.437 180.743L204.798 143.888Z" fill="white"/>
<path d="M177.089 224.894L153.899 153.19L182.092 126.539L198.696 173.713L177.089 224.894Z" fill="white"/>
<path d="M228.683 177.598L211.319 187.063L212.006 206.693L228.683 177.598Z" fill="white"/>
<path d="M228.753 174.377L207.619 146.139L212.493 183.181L228.753 174.377Z" fill="white"/>
<path d="M207.853 143.435L185.993 125.99L216.941 118.307L228.752 171.485L207.853 143.435Z" fill="white"/>
<path d="M214.802 115.443L181.636 91.6744L184.535 123.478L214.802 115.443Z" fill="white"/>
<path d="M150.325 148.989L142.247 81.2497L123.151 121.329L150.325 148.989Z" fill="white"/>
<path d="M178.463 91.07L144.784 78.0704L153.733 149.781L181.879 122.708L178.463 91.07Z" fill="white"/>
<path d="M178.862 87.9187L147.674 76.1363L186.824 70.9506L178.862 87.9187Z" fill="white"/>
<path d="M217.198 114.85L183.892 90.7762L241.207 82.3541L217.198 114.85Z" fill="white"/>
<path d="M190.725 71.3654L182.998 87.5572L237.212 80.1292L190.725 71.3654Z" fill="white"/>
<path d="M193.075 68.4216L194.671 68.7317L230.413 52.7306L242.875 78.0952L194.671 68.7317L193.897 69.0781L193.075 68.4216Z" fill="white"/>
<path d="M187.975 67.8213L150.305 72.8392L198.074 46.0055L187.975 67.8213Z" fill="white"/>
<path d="M201.858 45.3626L192.651 65.5778L193.121 65.9529L226.511 51.3519L201.858 45.3626Z" fill="white"/>
<path d="M262.206 43.9871L235.465 50.0161L251.912 39.0485L262.206 43.9871Z" fill="white"/>
<path d="M245.53 76.9375L234.102 53.1694L263.429 46.312L245.53 76.9375Z" fill="white"/>
<path d="M224.996 414.742L215.727 431.654L188.067 400.584L224.996 414.742Z" fill="white"/>
<path d="M346.025 43.5567L373.917 32.4705L373.447 32.0954L341.46 19.868L346.025 43.5567Z" fill="white"/>
<path d="M309.299 60.8921L342.736 47.6781L337.359 65.7456L309.299 60.8921Z" fill="white"/>
<path d="M307.983 63.5046L354.61 71.6097L332.194 83.7892L307.983 63.5046Z" fill="white"/>
<path d="M340.321 66.374L354.515 68.8357L345.251 49.1068L340.321 66.374Z" fill="white"/>
<path d="M375.892 34.8173L348.211 45.8795L373.517 63.9682L375.892 34.8173Z" fill="white"/>
<path d="M347.601 48.0908L380.519 115.801L374.161 67.3594L347.601 48.0908Z" fill="white"/>
<path d="M377.405 70.5264L431.448 126.953L384.375 122.54L377.405 70.5264Z" fill="white"/>
<path d="M413.219 155.581L456.207 175.237L433.705 129.911L385.904 125.687L413.219 155.581Z" fill="white"/>
<path d="M415.876 159.243L434.202 230.534L457.6 200.249L456.654 178.293L415.876 159.243Z" fill="white"/>
<path d="M384.588 127.336L387.921 200.54L412.467 156.523L384.588 127.336Z" fill="white"/>
<path d="M413.338 159.53L389.45 203.687L430.951 232.013L413.338 159.53Z" fill="white"/>
<path d="M436.552 232.41L463.6 228.167L458.047 204.269L436.552 232.41Z" fill="white"/>
<path d="M467.455 230.087L493.31 250.72L490.339 212.499L467.455 230.087Z" fill="white"/>
<path d="M435.154 235.367L454.183 253.226L463.413 231.294L435.154 235.367Z" fill="white"/>
<path d="M463.025 274.93L491.291 254.698L468.011 290.86L463.025 274.93Z" fill="white"/>
<path d="M466.257 232.793L490.585 252.207L461.661 272.3L456.416 255.972L466.257 232.793Z" fill="white"/>
<path d="M455.266 261.029L466.579 294.342L443.951 306.546L455.266 261.029Z" fill="white"/>
<path d="M432.793 237.12L453.385 255.673L440.99 306.881L413.37 279.057L432.793 237.12Z" fill="white"/>
<path d="M411.888 276.333L389.521 207.213L430.819 234.773L411.888 276.333Z" fill="white"/>
<path d="M359.015 288.108L378.313 302.737L363.708 260.05L354.376 251.253L359.015 288.108Z" fill="white"/>
<path d="M386.724 207.102L409.915 278.806L381.722 305.457L365.118 258.283L386.724 207.102Z" fill="white"/>
<path d="M335.13 254.398L352.494 244.933L351.808 225.303L335.13 254.398Z" fill="white"/>
<path d="M335.06 257.619L356.195 285.857L351.32 248.815L335.06 257.619Z" fill="white"/>
<path d="M355.961 288.561L377.821 306.006L346.873 313.69L335.061 260.511L355.961 288.561Z" fill="white"/>
<path d="M349.012 316.553L382.177 340.322L379.278 308.518L349.012 316.553Z" fill="white"/>
<path d="M413.488 283.007L421.567 350.746L440.662 310.667L413.488 283.007Z" fill="white"/>
<path d="M385.35 340.926L419.03 353.926L410.08 282.215L381.934 309.288L385.35 340.926Z" fill="white"/>
<path d="M384.951 344.077L416.14 355.86L376.989 361.045L384.951 344.077Z" fill="white"/>
<path d="M346.615 317.146L379.922 341.22L322.606 349.642L346.615 317.146Z" fill="white"/>
<path d="M373.088 360.631L380.815 344.439L326.602 351.867L373.088 360.631Z" fill="white"/>
<path d="M370.739 363.574L369.142 363.264L333.401 379.265L320.939 353.901L369.142 363.264L369.916 362.918L370.739 363.574Z" fill="white"/>
<path d="M375.839 364.175L413.508 359.157L365.739 385.991L375.839 364.175Z" fill="white"/>
<path d="M361.956 386.634L371.163 366.418L370.692 366.043L337.302 380.644L361.956 386.634Z" fill="white"/>
<path d="M301.607 388.009L328.349 381.98L311.902 392.948L301.607 388.009Z" fill="white"/>
<path d="M318.284 355.059L329.711 378.827L300.384 385.684L318.284 355.059Z" fill="white"/>
<path d="M338.817 17.2538L348.086 0.342118L375.747 31.412L338.817 17.2538Z" fill="white"/>
</svg>
